<?xml version="1.0" encoding="UTF-8" standalone="no"?>
<!-- Created with Inkscape (http://www.inkscape.org/) -->

<svg
   xmlns:dc="http://purl.org/dc/elements/1.1/"
   xmlns:cc="http://creativecommons.org/ns#"
   xmlns:rdf="http://www.w3.org/1999/02/22-rdf-syntax-ns#"
   xmlns:svg="http://www.w3.org/2000/svg"
   xmlns="http://www.w3.org/2000/svg"
   xmlns:sodipodi="http://sodipodi.sourceforge.net/DTD/sodipodi-0.dtd"
   xmlns:inkscape="http://www.inkscape.org/namespaces/inkscape"
   id="svg2"
   version="1.1"
   inkscape:version="0.91 r13725"
   width="512"
   height="512"
   viewBox="0 0 512 512"
   sodipodi:docname="logo.svg"
   inkscape:export-filename="C:\Users\acer\Drupal\Themes\jeeter\new_logo.png"
   inkscape:export-xdpi="90"
   inkscape:export-ydpi="90">
  <title
     id="title4160">logo jeet para drupal theme</title>
  <metadata
     id="metadata8">
    <rdf:RDF>
      <cc:Work
         rdf:about="">
        <dc:format>image/svg+xml</dc:format>
        <dc:type
           rdf:resource="http://purl.org/dc/dcmitype/StillImage" />
        <dc:title>logo jeet para drupal theme</dc:title>
        <cc:license
           rdf:resource="http://creativecommons.org/licenses/by-nc-sa/3.0/" />
        <dc:creator>
          <cc:Agent>
            <dc:title>@gambyloko (Ricardo Abad)</dc:title>
          </cc:Agent>
        </dc:creator>
      </cc:Work>
      <cc:License
         rdf:about="http://creativecommons.org/licenses/by-nc-sa/3.0/">
        <cc:permits
           rdf:resource="http://creativecommons.org/ns#Reproduction" />
        <cc:permits
           rdf:resource="http://creativecommons.org/ns#Distribution" />
        <cc:requires
           rdf:resource="http://creativecommons.org/ns#Notice" />
        <cc:requires
           rdf:resource="http://creativecommons.org/ns#Attribution" />
        <cc:prohibits
           rdf:resource="http://creativecommons.org/ns#CommercialUse" />
        <cc:permits
           rdf:resource="http://creativecommons.org/ns#DerivativeWorks" />
        <cc:requires
           rdf:resource="http://creativecommons.org/ns#ShareAlike" />
      </cc:License>
    </rdf:RDF>
  </metadata>
  <defs
     id="defs6" />
  <sodipodi:namedview
     pagecolor="#ffffff"
     bordercolor="#666666"
     borderopacity="0.67058824"
     objecttolerance="10"
     gridtolerance="10"
     guidetolerance="10"
     inkscape:pageopacity="0"
     inkscape:pageshadow="2"
     inkscape:window-width="1323"
     inkscape:window-height="713"
     id="namedview4"
     showgrid="false"
     inkscape:zoom="0.65186407"
     inkscape:cx="258.94161"
     inkscape:cy="326.98291"
     inkscape:window-x="0"
     inkscape:window-y="0"
     inkscape:window-maximized="0"
     inkscape:current-layer="svg2" />
  <g
     id="g4138"
     transform="matrix(16.374438,0,0,16.374438,-4.659755,-7.3145308)">
    <path
       style="fill:#f8dca5"
       d="M 11.57293,29.430073 C 10.70947,28.566613 9.735195,26.793114 9.4078742,25.488964 9.0056563,23.8864 7.8414742,22.904456 5.8163795,22.45967 3.7322356,22.001915 2.4240132,20.85975 1.5192755,18.708013 -0.20284251,14.6123 1.2976118,11.320317 5.7307736,9.4680233 7.9254133,8.5510443 9.4455308,7.020396 10.139994,5.0282574 12.095032,-0.57996901 20.070083,0.03399237 22.132951,5.9515383 22.840647,7.9816369 24.198509,9.2404395 26.5,10 c 6.251203,2.063083 6.224841,10.848308 -0.03727,12.419998 -1.680347,0.42174 -3.086704,1.829131 -3.991372,3.994308 -1.984371,4.749268 -7.608612,6.305584 -10.898429,3.015767 z M 17.989431,17.512735 C 19.624217,15.542938 18.558826,13 16.098772,13 c -2.029541,0 -3.704754,3.210484 -2.604303,4.991051 0.906254,1.46635 3.072327,1.235855 4.494962,-0.478316 z"
       id="path4158"
       inkscape:connector-curvature="0" />
    <path
       style="fill:#9fe9e7"
       d="M 11.522321,29.379464 C 10.631027,28.48817 9.6414664,26.457332 9.3232984,24.866492 8.9395519,22.947759 7.9709449,21.779828 6.4460016,21.397091 0.05564885,19.793215 -0.59472501,13.067721 5.4298598,10.889203 7.8738035,10.005461 9.3499864,8.5502746 10.588342,5.8040914 c 2.985322,-6.62026145 9.362502,-5.85735254 10.936349,1.3083273 0.350929,1.5977687 0.999744,2.6814964 1.441812,2.4082837 0.442067,-0.2732128 2.172808,-0.019497 3.84609,0.5638116 5.954188,2.075641 5.706306,10.815482 -0.349862,12.335484 -1.680347,0.42174 -3.086704,1.829131 -3.991372,3.994308 -1.998273,4.78254 -7.61151,6.302686 -10.949038,2.965158 z M 17.8,17.8 C 18.46,17.14 19,15.565 19,14.3 19,12.566667 18.433333,12 16.7,12 13.769348,12 12,13.769348 12,16.7 c 0,1.733333 0.566667,2.3 2.3,2.3 1.265,0 2.84,-0.54 3.5,-1.2 z"
       id="path4156"
       inkscape:connector-curvature="0" />
    <path
       style="fill:#f9a694"
       d="M 12.813106,29.29402 C 8.7667685,24.689513 9.8702166,20 15,20 18.33549,20 20.268306,17.919746 19.826764,14.805042 19.611313,13.285221 18.714779,12.388687 17.194958,12.173236 14.080254,11.731694 12,13.66451 12,17 12,20.509975 9.9002316,22.264048 6.6692494,21.453123 0.07435557,19.79791 -0.71034456,13.109529 5.4298598,10.889203 7.8738035,10.005461 9.3499864,8.5502746 10.588342,5.8040914 c 3.058535,-6.78261712 8.457157,-6.05690169 10.995754,1.4781157 0.756411,2.2451667 1.814339,3.3209179 3.5,3.5589679 C 28.116383,11.269396 31,13.783986 31,16 c 0,1.80544 -2.455994,4.327943 -5.132558,5.271549 -0.897906,0.316551 -2.937673,2.522451 -4.532815,4.901999 -3.206591,4.783426 -6.121988,5.851007 -8.521521,3.120472 z"
       id="path4154"
       inkscape:connector-curvature="0" />
    <path
       style="fill:#f6d457"
       d="M 12.813106,29.29402 C 8.7948547,24.721474 9.8664241,20 14.922445,20 18.341697,20 20,18.320982 20,14.859017 20,13.351476 20.5625,11.767861 21.25,11.339871 24.41957,9.3667175 31,12.511913 31,16 c 0,1.80544 -2.455994,4.327943 -5.132558,5.271549 -0.897906,0.316551 -2.937673,2.522451 -4.532815,4.901999 -3.206591,4.783426 -6.121988,5.851007 -8.521521,3.120472 z M 5.4652821,21.048476 C -0.75978221,18.525212 -0.2142147,13.011032 6.514754,10.441215 9.6859427,9.2301272 11.21171,8.0046608 11.63167,6.3314092 12.318093,3.596481 15.156181,1.7389658 17.357682,2.583761 19.033568,3.226859 21.280655,8.7368744 20.429007,10.114869 20.128134,10.601691 18.574356,11 16.976167,11 13.804322,11 12,13.260497 12,17.234259 c 0,4.094918 -2.3943567,5.492469 -6.5347179,3.814217 z"
       id="path4152"
       inkscape:connector-curvature="0" />
    <path
       style="fill:#5ed7e9"
       d="M 12.813106,29.29402 C 8.7948547,24.721474 9.8664241,20 14.922445,20 18.341697,20 20,18.320982 20,14.859017 20,13.351476 20.5625,11.767861 21.25,11.339871 24.41957,9.3667175 31,12.511913 31,16 c 0,1.80544 -2.455994,4.327943 -5.132558,5.271549 -0.897906,0.316551 -2.937673,2.522451 -4.532815,4.901999 -3.206591,4.783426 -6.121988,5.851007 -8.521521,3.120472 z M 3.3883401,18.569615 C 3.0594898,17.712645 2.3875836,17.26046 1.8952152,17.564761 1.4028468,17.869061 1,17.241033 1,16.169144 1,14.835202 2.4407951,13.543 5.5661613,12.073904 8.812109,10.548129 10.536116,8.9611409 11.528905,6.585063 c 2.329374,-5.5749757 6.51394,-5.76951778 8.389243,-0.3900191 1.310014,3.7579075 0.720059,4.8006531 -2.727165,4.8202691 -3.8346,0.02182 -5.293676,1.247793 -6.076153,5.105422 -0.588479,2.901214 -1.1411884,3.423667 -3.9070133,3.693136 -2.206916,0.215016 -3.409882,-0.17687 -3.8194766,-1.244256 z"
       id="path4150"
       inkscape:connector-curvature="0" />
    <path
       style="fill:#1fc7ef"
       d="M 13.806987,29.25 C 10.275505,25.138128 10.676779,21 14.606989,21 17.905566,21 21,17.611763 21,14 c 0,-3.569176 2.470771,-4.0164101 7.095708,-1.284392 4.104106,2.424354 3.670601,4.733916 -1.345708,7.169464 -3.046568,1.479188 -4.92646,3.344991 -6.638962,6.589207 -2.582192,4.891784 -3.964093,5.500245 -6.304051,2.775721 z M 3.3883401,18.569615 C 3.0594898,17.712645 2.3875836,17.26046 1.8952152,17.564761 1.4028468,17.869061 1,17.241033 1,16.169144 1,14.835202 2.4407951,13.543 5.5661613,12.073904 8.812109,10.548129 10.536116,8.9611409 11.528905,6.585063 c 2.329374,-5.5749757 6.51394,-5.76951778 8.389243,-0.3900191 1.310014,3.7579075 0.720059,4.8006531 -2.727165,4.8202691 -3.8346,0.02182 -5.293676,1.247793 -6.076153,5.105422 -0.588479,2.901214 -1.1411884,3.423667 -3.9070133,3.693136 -2.206916,0.215016 -3.409882,-0.17687 -3.8194766,-1.244256 z"
       id="path4148"
       inkscape:connector-curvature="0" />
    <path
       style="fill:#fbc80d"
       d="m 13.03877,27.072442 c -1.499297,-2.801462 -0.349389,-4.760318 3.212658,-5.472728 4.106969,-0.821393 4.901174,0.200778 3.224683,4.150286 -1.57889,3.719577 -4.800262,4.381353 -6.437341,1.322442 z m 8.103573,-6.400929 C 20.585424,20.000467 20.384818,17.549858 20.696551,15.225715 21.144656,11.884846 21.674599,11 23.227377,11 26.057079,11 31,14.16384 31,15.975061 c 0,2.834465 -8.171833,6.727746 -9.857657,4.696452 z M 3.3883401,18.569615 C 3.0594898,17.712645 2.3875836,17.26046 1.8952152,17.564761 1.4028468,17.869061 1,17.241033 1,16.169144 1,14.835202 2.4407951,13.543 5.5661613,12.073904 8.812109,10.548129 10.536116,8.9611409 11.528905,6.585063 c 2.329374,-5.5749757 6.51394,-5.76951778 8.389243,-0.3900191 1.310014,3.7579075 0.720059,4.8006531 -2.727165,4.8202691 -3.8346,0.02182 -5.293676,1.247793 -6.076153,5.105422 -0.588479,2.901214 -1.1411884,3.423667 -3.9070133,3.693136 -2.206916,0.215016 -3.409882,-0.17687 -3.8194766,-1.244256 z"
       id="path4146"
       inkscape:connector-curvature="0" />
    <path
       style="fill:#02bdfc"
       d="m 13.03877,27.072442 c -1.499297,-2.801462 -0.349389,-4.760318 3.212658,-5.472728 4.106969,-0.821393 4.901174,0.200778 3.224683,4.150286 -1.57889,3.719577 -4.800262,4.381353 -6.437341,1.322442 z m 8.103573,-6.400929 C 20.585424,20.000467 20.384818,17.549858 20.696551,15.225715 21.144656,11.884846 21.674599,11 23.227377,11 26.057079,11 31,14.16384 31,15.975061 c 0,2.834465 -8.171833,6.727746 -9.857657,4.696452 z M 11.201196,10.67708 c -0.578472,-0.7379861 -0.433095,-2.3426154 0.389713,-4.3015336 2.270871,-5.40642443 6.486384,-5.46118394 8.35234,-0.1084969 0.595651,1.7086849 0.739595,3.4139996 0.319876,3.7895885 -1.515759,1.356389 -8.130078,1.809251 -9.061929,0.620442 z"
       id="path4144"
       inkscape:connector-curvature="0" />
    <path
       style="fill:#fc6b4e"
       d="M 21.142343,20.671513 C 20.585424,20.000467 20.384818,17.549858 20.696551,15.225715 21.144656,11.884846 21.674599,11 23.227377,11 26.057079,11 31,14.16384 31,15.975061 c 0,2.834465 -8.171833,6.727746 -9.857657,4.696452 z M 11.201196,10.67708 c -0.578472,-0.7379861 -0.433095,-2.3426154 0.389713,-4.3015336 2.270871,-5.40642443 6.486384,-5.46118394 8.35234,-0.1084969 0.595651,1.7086849 0.739595,3.4139996 0.319876,3.7895885 -1.515759,1.356389 -8.130078,1.809251 -9.061929,0.620442 z"
       id="path4142"
       inkscape:connector-curvature="0" />
    <path
       style="fill:#13dea0"
       d="M 21.142343,20.671513 C 20.585424,20.000467 20.384818,17.549858 20.696551,15.225715 21.144656,11.884846 21.674599,11 23.227377,11 26.057079,11 31,14.16384 31,15.975061 c 0,2.834465 -8.171833,6.727746 -9.857657,4.696452 z"
       id="path4140"
       inkscape:connector-curvature="0" />
  </g>
</svg>
